<svg xmlns="http://www.w3.org/2000/svg" xmlns:xlink="http://www.w3.org/1999/xlink" width="100" zoomAndPan="magnify" viewBox="0 0 75 74.999997" height="100" preserveAspectRatio="xMidYMid meet" version="1.0"><path fill="rgb(0%, 29.019165%, 67.83905%)" d="M 11.25 0 L 63.75 0 C 64.488281 0 65.21875 0.0703125 65.945312 0.214844 C 66.667969 0.359375 67.371094 0.574219 68.054688 0.855469 C 68.738281 1.140625 69.386719 1.484375 70 1.894531 C 70.613281 2.304688 71.183594 2.773438 71.703125 3.296875 C 72.226562 3.816406 72.695312 4.386719 73.105469 5 C 73.515625 5.613281 73.859375 6.261719 74.144531 6.945312 C 74.425781 7.628906 74.640625 8.332031 74.785156 9.054688 C 74.929688 9.78125 75 10.511719 75 11.25 L 75 63.75 C 75 64.488281 74.929688 65.21875 74.785156 65.945312 C 74.640625 66.667969 74.425781 67.371094 74.144531 68.054688 C 73.859375 68.738281 73.515625 69.386719 73.105469 70 C 72.695312 70.613281 72.226562 71.183594 71.703125 71.703125 C 71.183594 72.226562 70.613281 72.695312 70 73.105469 C 69.386719 73.515625 68.738281 73.859375 68.054688 74.144531 C 67.371094 74.425781 66.667969 74.640625 65.945312 74.785156 C 65.21875 74.929688 64.488281 75 63.75 75 L 11.25 75 C 10.511719 75 9.78125 74.929688 9.054688 74.785156 C 8.332031 74.640625 7.628906 74.425781 6.945312 74.144531 C 6.261719 73.859375 5.613281 73.515625 5 73.105469 C 4.386719 72.695312 3.816406 72.226562 3.296875 71.703125 C 2.773438 71.183594 2.304688 70.613281 1.894531 70 C 1.484375 69.386719 1.140625 68.738281 0.855469 68.054688 C 0.574219 67.371094 0.359375 66.667969 0.214844 65.945312 C 0.0703125 65.21875 0 64.488281 0 63.75 L 0 11.25 C 0 10.511719 0.0703125 9.78125 0.214844 9.054688 C 0.359375 8.332031 0.574219 7.628906 0.855469 6.945312 C 1.140625 6.261719 1.484375 5.613281 1.894531 5 C 2.304688 4.386719 2.773438 3.816406 3.296875 3.296875 C 3.816406 2.773438 4.386719 2.304688 5 1.894531 C 5.613281 1.484375 6.261719 1.140625 6.945312 0.855469 C 7.628906 0.574219 8.332031 0.359375 9.054688 0.214844 C 9.78125 0.0703125 10.511719 0 11.25 0 Z M 11.25 0 " fill-opacity="1" fill-rule="nonzero"/><path fill="rgb(100%, 100%, 100%)" d="M 42.039062 66.796875 L 42.039062 22.996094 C 42.039062 19.921875 42.917969 17.871094 47.167969 17.871094 L 52.734375 17.871094 L 52.734375 8.640625 C 51.707031 8.496094 48.484375 8.203125 44.675781 8.203125 C 36.765625 8.203125 31.347656 13.035156 31.347656 21.972656 L 31.347656 66.796875 M 52.292969 29.589844 L 22.265625 29.589844 L 22.265625 40.136719 L 50.976562 40.136719 " fill-opacity="1" fill-rule="nonzero"/></svg>