<svg xmlns="http://www.w3.org/2000/svg" xmlns:xlink="http://www.w3.org/1999/xlink" width="100" zoomAndPan="magnify" viewBox="0 0 75 74.999997" height="100" preserveAspectRatio="xMidYMid meet" version="1.0"><path fill="rgb(0%, 46.669006%, 70.979309%)" d="M 11.25 0 L 63.75 0 C 64.488281 0 65.21875 0.0703125 65.945312 0.214844 C 66.667969 0.359375 67.371094 0.574219 68.054688 0.855469 C 68.738281 1.140625 69.386719 1.484375 70 1.894531 C 70.613281 2.304688 71.183594 2.773438 71.703125 3.296875 C 72.226562 3.816406 72.695312 4.386719 73.105469 5 C 73.515625 5.613281 73.859375 6.261719 74.144531 6.945312 C 74.425781 7.628906 74.640625 8.332031 74.785156 9.054688 C 74.929688 9.78125 75 10.511719 75 11.25 L 75 63.75 C 75 64.488281 74.929688 65.21875 74.785156 65.945312 C 74.640625 66.667969 74.425781 67.371094 74.144531 68.054688 C 73.859375 68.738281 73.515625 69.386719 73.105469 70 C 72.695312 70.613281 72.226562 71.183594 71.703125 71.703125 C 71.183594 72.226562 70.613281 72.695312 70 73.105469 C 69.386719 73.515625 68.738281 73.859375 68.054688 74.144531 C 67.371094 74.425781 66.667969 74.640625 65.945312 74.785156 C 65.21875 74.929688 64.488281 75 63.75 75 L 11.25 75 C 10.511719 75 9.78125 74.929688 9.054688 74.785156 C 8.332031 74.640625 7.628906 74.425781 6.945312 74.144531 C 6.261719 73.859375 5.613281 73.515625 5 73.105469 C 4.386719 72.695312 3.816406 72.226562 3.296875 71.703125 C 2.773438 71.183594 2.304688 70.613281 1.894531 70 C 1.484375 69.386719 1.140625 68.738281 0.855469 68.054688 C 0.574219 67.371094 0.359375 66.667969 0.214844 65.945312 C 0.0703125 65.21875 0 64.488281 0 63.75 L 0 11.25 C 0 10.511719 0.0703125 9.78125 0.214844 9.054688 C 0.359375 8.332031 0.574219 7.628906 0.855469 6.945312 C 1.140625 6.261719 1.484375 5.613281 1.894531 5 C 2.304688 4.386719 2.773438 3.816406 3.296875 3.296875 C 3.816406 2.773438 4.386719 2.304688 5 1.894531 C 5.613281 1.484375 6.261719 1.140625 6.945312 0.855469 C 7.628906 0.574219 8.332031 0.359375 9.054688 0.214844 C 9.78125 0.0703125 10.511719 0 11.25 0 Z M 11.25 0 " fill-opacity="1" fill-rule="nonzero"/><path fill="rgb(100%, 100%, 100%)" d="M 26.21875 20.214844 C 26.21875 20.570312 26.1875 20.921875 26.117188 21.273438 C 26.046875 21.621094 25.945312 21.960938 25.808594 22.289062 C 25.671875 22.617188 25.503906 22.929688 25.308594 23.226562 C 25.109375 23.523438 24.886719 23.796875 24.632812 24.046875 C 24.382812 24.300781 24.109375 24.523438 23.8125 24.722656 C 23.515625 24.917969 23.203125 25.085938 22.875 25.222656 C 22.546875 25.359375 22.207031 25.460938 21.859375 25.53125 C 21.507812 25.601562 21.15625 25.632812 20.800781 25.632812 C 20.445312 25.632812 20.09375 25.601562 19.742188 25.53125 C 19.394531 25.460938 19.054688 25.359375 18.726562 25.222656 C 18.398438 25.085938 18.085938 24.917969 17.789062 24.722656 C 17.492188 24.523438 17.21875 24.300781 16.96875 24.046875 C 16.714844 23.796875 16.492188 23.523438 16.292969 23.226562 C 16.097656 22.929688 15.929688 22.617188 15.792969 22.289062 C 15.65625 21.960938 15.554688 21.621094 15.484375 21.273438 C 15.414062 20.921875 15.382812 20.570312 15.382812 20.214844 C 15.382812 19.859375 15.414062 19.507812 15.484375 19.15625 C 15.554688 18.808594 15.65625 18.46875 15.792969 18.140625 C 15.929688 17.8125 16.097656 17.5 16.292969 17.203125 C 16.492188 16.90625 16.714844 16.632812 16.96875 16.382812 C 17.21875 16.128906 17.492188 15.90625 17.789062 15.707031 C 18.085938 15.511719 18.398438 15.34375 18.726562 15.207031 C 19.054688 15.070312 19.394531 14.96875 19.742188 14.898438 C 20.09375 14.828125 20.445312 14.792969 20.800781 14.792969 C 21.15625 14.792969 21.507812 14.828125 21.859375 14.898438 C 22.207031 14.96875 22.546875 15.070312 22.875 15.207031 C 23.203125 15.34375 23.515625 15.511719 23.8125 15.707031 C 24.109375 15.90625 24.382812 16.128906 24.632812 16.382812 C 24.886719 16.632812 25.109375 16.90625 25.308594 17.203125 C 25.503906 17.5 25.671875 17.8125 25.808594 18.140625 C 25.945312 18.46875 26.046875 18.808594 26.117188 19.15625 C 26.1875 19.507812 26.21875 19.859375 26.21875 20.214844 Z M 26.21875 20.214844 " fill-opacity="1" fill-rule="nonzero"/><path stroke-linecap="butt" transform="matrix(0.146484, 0, 0, 0.146484, 0.0000015, -0.000001)" fill-opacity="1" fill="rgb(100%, 100%, 100%)" fill-rule="nonzero" stroke-linejoin="miter" d="M 244.000011 194.000023 L 244.000011 392.00004 M 142.000002 194.000023 L 142.000002 392.00004 " stroke="rgb(100%, 100%, 100%)" stroke-width="66" stroke-opacity="1" stroke-miterlimit="4"/><path fill="rgb(100%, 100%, 100%)" d="M 40.429688 41.308594 C 40.429688 38.378906 42.332031 35.449219 45.703125 35.449219 C 49.21875 35.449219 50.535156 38.085938 50.535156 42.039062 L 50.535156 57.421875 L 60.203125 57.421875 L 60.203125 40.867188 C 60.203125 31.933594 55.515625 27.832031 49.070312 27.832031 C 44.089844 27.832031 41.601562 30.613281 40.429688 32.519531 " fill-opacity="1" fill-rule="nonzero"/></svg>